<?xml version="1.0" standalone="no"?>
<!DOCTYPE svg PUBLIC "-//W3C//DTD SVG 20010904//EN"
 "http://www.w3.org/TR/2001/REC-SVG-20010904/DTD/svg10.dtd">
<svg version="1.0" xmlns="http://www.w3.org/2000/svg"
 width="1280.000000pt" height="1280.000000pt" viewBox="0 0 1280.000000 1280.000000"
 preserveAspectRatio="xMidYMid meet">
<metadata>
Created by potrace 1.16, written by Peter Selinger 2001-2019
</metadata>
<g transform="translate(0.000000,1280.000000) scale(0.100000,-0.100000)"
fill="#000000" stroke="none">
<path d="M4375 12556 c-202 -42 -355 -126 -498 -274 -68 -69 -105 -120 -151
-212 -46 -89 -46 -90 -226 -710 -134 -464 -570 -1964 -691 -2380 -33 -113 -78
-268 -100 -345 -23 -77 -54 -183 -69 -235 -32 -110 -35 -118 -339 -1165 -126
-434 -264 -909 -306 -1055 -42 -146 -92 -318 -111 -382 -19 -65 -49 -171 -68
-235 -19 -65 -56 -190 -82 -278 -105 -357 -107 -367 -107 -520 -1 -144 9 -200
54 -323 81 -221 263 -417 478 -514 116 -53 240 -79 376 -80 136 0 223 15 338
60 213 82 387 242 490 447 34 69 66 165 147 445 23 80 57 197 76 260 58 199
439 1514 509 1755 37 127 82 283 101 348 19 64 50 171 69 237 19 66 51 174 70
240 19 66 51 174 70 240 19 66 50 173 69 238 19 64 65 221 101 347 37 127 123
424 192 660 68 237 196 678 284 980 204 702 263 903 305 1045 88 297 104 374
104 498 0 166 -26 275 -101 425 -153 304 -476 499 -821 496 -57 -1 -130 -7
-163 -13z"/>
<path d="M10795 12553 c-216 -46 -421 -175 -551 -346 -54 -71 -136 -236 -157
-317 -17 -63 -113 -394 -462 -1595 -136 -467 -274 -942 -307 -1055 -33 -113
-75 -258 -94 -322 -110 -379 -189 -650 -248 -853 -106 -368 -322 -1113 -391
-1345 -18 -63 -61 -212 -95 -330 -34 -118 -74 -258 -90 -310 -15 -52 -47 -160
-70 -240 -23 -80 -55 -188 -70 -240 -113 -382 -181 -624 -191 -675 -15 -82 -6
-313 16 -395 65 -244 233 -456 457 -575 148 -78 270 -108 443 -107 344 1 656
196 813 508 33 65 56 133 122 364 23 80 55 188 70 240 15 52 46 158 69 235
122 419 599 2063 656 2260 36 127 82 283 101 348 19 64 50 171 69 237 19 66
50 173 69 238 19 64 55 187 80 272 24 85 61 211 81 280 55 186 104 356 126
435 11 39 137 471 279 960 142 490 282 969 309 1065 77 263 85 388 39 580 -70
295 -292 542 -578 645 -155 55 -346 70 -495 38z"/>
<path d="M6595 8983 c-169 -36 -321 -119 -451 -248 -157 -155 -187 -218 -328
-685 -36 -118 -124 -411 -197 -650 -72 -239 -137 -455 -144 -480 -11 -39 -93
-310 -295 -975 -49 -160 -169 -558 -260 -861 -57 -188 -75 -305 -66 -423 31
-403 313 -737 703 -833 124 -30 304 -30 427 0 343 85 581 325 689 697 33 113
134 445 369 1220 55 182 106 350 113 375 7 25 72 241 145 480 308 1017 389
1291 400 1366 8 47 10 115 6 170 -29 424 -322 761 -739 849 -87 19 -280 18
-372 -2z"/>
<path d="M3385 3228 c-4 -14 -55 -309 -55 -321 0 -4 102 -7 228 -7 l227 0 28
158 c15 86 27 163 27 170 0 9 -52 12 -225 12 -172 0 -227 -3 -230 -12z"/>
<path d="M4090 3233 c0 -10 -31 -186 -196 -1120 -75 -431 -135 -785 -132 -788
5 -6 449 -8 452 -3 1 2 24 127 50 278 26 151 79 453 117 670 38 217 89 510
114 650 24 140 47 270 51 288 l7 32 -232 0 c-127 0 -231 -3 -231 -7z"/>
<path d="M5681 3188 c-6 -29 -32 -179 -59 -332 l-48 -279 -32 50 c-65 101
-162 138 -341 131 -75 -3 -125 -11 -171 -27 -311 -108 -511 -439 -512 -846 -1
-211 43 -347 149 -464 83 -93 198 -140 339 -141 125 0 227 42 322 134 l54 51
-7 -65 c-4 -36 -8 -69 -9 -73 -1 -11 425 -11 434 0 4 4 12 40 19 78 12 75 70
405 126 725 19 107 68 391 110 630 42 239 79 445 82 458 l5 22 -225 0 -226 0
-10 -52z m-280 -841 c32 -17 50 -37 69 -72 49 -96 36 -326 -25 -451 -93 -190
-354 -238 -435 -80 -47 93 -37 324 19 451 23 52 84 121 125 142 79 41 181 45
247 10z"/>
<path d="M776 3188 c2 -18 22 -195 44 -393 22 -198 61 -540 86 -760 24 -220
52 -467 61 -550 9 -82 20 -154 24 -160 4 -6 90 -9 231 -7 l224 3 44 112 c24
62 96 245 160 407 64 162 139 351 166 420 l49 125 6 -70 c4 -38 12 -245 18
-460 6 -214 14 -422 17 -462 l6 -72 230 -3 c145 -2 233 1 238 7 4 6 162 343
350 750 474 1025 520 1125 520 1136 0 6 -94 8 -247 7 l-247 -3 -62 -145 c-96
-225 -226 -532 -284 -670 -75 -180 -102 -241 -106 -237 -3 3 -34 936 -34 1030
l0 27 -259 0 -258 0 -38 -107 c-20 -60 -64 -182 -96 -273 -32 -91 -96 -274
-143 -408 -47 -134 -89 -250 -94 -258 -10 -18 -7 -49 -52 571 -17 237 -33 440
-36 453 l-4 22 -260 0 -259 0 5 -32z"/>
<path d="M6380 3212 c0 -5 -11 -69 -25 -143 -13 -74 -33 -186 -44 -249 -11
-63 -51 -293 -90 -510 -56 -318 -120 -684 -168 -957 -4 -24 -1 -33 8 -33 70
-2 434 2 436 4 2 2 48 252 101 555 59 335 100 542 104 528 3 -12 14 -254 23
-537 9 -283 20 -524 24 -535 8 -19 15 -20 247 -15 l238 5 53 135 c29 74 89
227 133 340 123 316 259 656 260 647 0 -4 -23 -135 -50 -290 -28 -155 -70
-394 -95 -532 -24 -137 -46 -263 -47 -278 l-3 -29 224 1 c123 0 226 2 228 5 5
4 333 1863 333 1884 0 10 -74 12 -351 10 l-351 -3 -78 -215 c-43 -118 -145
-401 -226 -629 l-149 -415 -3 632 -2 632 -365 0 c-201 0 -365 -4 -365 -8z"/>
<path d="M8914 2749 c-331 -55 -576 -297 -650 -642 -25 -114 -29 -297 -10
-396 56 -300 265 -442 626 -429 106 4 139 10 219 37 52 18 122 48 154 68 109
66 232 196 286 301 l21 42 -233 0 c-227 0 -234 -1 -253 -21 -44 -50 -171 -81
-238 -59 -83 27 -138 106 -140 200 l-1 55 456 3 456 2 16 58 c26 91 39 211 32
287 -25 270 -161 435 -402 489 -77 17 -251 20 -339 5z m221 -373 c35 -23 62
-69 70 -122 13 -88 24 -84 -231 -84 -129 0 -224 4 -224 9 0 17 40 103 59 128
28 35 68 64 110 80 50 18 181 12 216 -11z"/>
<path d="M10618 2744 c-80 -19 -152 -57 -211 -112 l-50 -47 7 50 c14 101 39
90 -198 93 -115 1 -213 -1 -217 -5 -6 -6 -70 -352 -149 -808 -33 -191 -54
-307 -75 -424 -14 -74 -25 -144 -25 -155 0 -21 3 -21 222 -19 123 1 226 2 229
3 3 0 9 21 12 48 4 26 18 110 31 187 94 531 128 710 141 734 21 41 79 88 122
100 91 26 196 6 228 -42 28 -43 28 -89 1 -238 -45 -250 -124 -702 -131 -749
l-7 -45 231 3 c127 1 231 5 231 7 0 6 106 605 150 854 17 90 30 194 30 232 0
164 -102 290 -274 335 -65 17 -224 17 -298 -2z"/>
<path d="M3303 2718 c-6 -7 -34 -148 -62 -313 -51 -296 -87 -495 -156 -881
-20 -108 -34 -199 -31 -201 4 -4 310 -6 437 -3 11 0 19 12 23 38 4 20 13 73
21 117 8 44 35 195 60 335 24 140 69 395 100 567 30 172 55 321 55 332 0 21
-5 21 -219 21 -163 0 -221 -3 -228 -12z"/>
<path d="M1955 898 c-7 -43 -65 -534 -65 -554 0 -12 10 -14 48 -12 l47 3 22
180 c11 99 28 233 35 298 l15 117 -48 0 c-46 0 -48 -1 -54 -32z"/>
<path d="M3735 918 c-2 -7 -17 -134 -34 -283 -18 -148 -33 -278 -35 -288 -4
-16 2 -18 47 -15 l52 3 12 109 c14 118 37 173 85 209 29 22 72 18 81 -8 5 -12
-14 -208 -28 -287 -4 -27 -4 -28 45 -28 58 0 52 -13 73 173 17 145 11 191 -28
225 -42 36 -120 25 -177 -26 -17 -14 -18 -13 -18 9 1 13 7 68 14 122 l12 97
-48 0 c-30 0 -50 -5 -53 -12z"/>
<path d="M1340 911 c-133 -41 -219 -155 -228 -304 -3 -45 1 -95 8 -122 14 -49
68 -118 109 -140 78 -40 209 -23 276 36 33 29 34 31 19 55 -20 30 -37 30 -77
2 -23 -17 -46 -22 -89 -23 -51 0 -60 3 -92 34 -73 71 -67 234 13 325 48 54
150 72 209 36 42 -26 54 -25 83 6 l24 26 -32 28 c-50 45 -150 63 -223 41z"/>
<path d="M6939 899 c-41 -24 -65 -60 -77 -115 -6 -32 -12 -40 -34 -42 -47 -6
-43 -59 6 -75 7 -2 3 -66 -13 -203 -12 -109 -25 -207 -27 -216 -4 -15 1 -18
30 -18 60 0 71 32 102 298 l17 142 43 0 c43 0 54 10 54 51 0 16 -7 19 -46 19
l-46 0 6 38 c8 41 37 72 70 72 28 0 46 18 46 47 0 21 -5 23 -47 23 -30 0 -62
-8 -84 -21z"/>
<path d="M9160 905 c0 -9 -60 -500 -66 -537 l-6 -38 46 0 c54 0 47 -20 76 224
11 99 22 181 24 183 2 2 26 -61 54 -139 29 -79 58 -154 65 -168 14 -27 50 -38
71 -21 8 7 53 78 102 159 48 81 94 154 101 162 12 13 13 10 8 -15 -8 -45 -45
-347 -45 -367 0 -15 9 -18 45 -18 29 0 45 4 45 13 0 17 58 495 65 535 l6 32
-55 0 -54 0 -62 -102 c-35 -57 -88 -143 -118 -192 l-55 -88 -29 78 c-15 44
-47 130 -69 192 l-41 112 -54 0 c-30 0 -54 -2 -54 -5z"/>
<path d="M3193 858 c-6 -7 -16 -36 -23 -65 -12 -47 -16 -52 -47 -58 -29 -5
-33 -10 -33 -35 0 -25 4 -30 25 -30 14 0 25 -4 25 -8 0 -4 -7 -61 -16 -127
-20 -159 -9 -198 63 -211 29 -5 123 18 123 31 0 2 -5 16 -10 31 -9 22 -15 26
-38 21 -52 -10 -56 0 -43 109 20 164 15 154 72 154 42 0 49 3 49 19 0 11 3 26
6 35 5 13 -3 16 -46 16 l-52 0 7 65 7 65 -30 0 c-16 0 -34 -6 -39 -12z"/>
<path d="M2503 729 c-107 -53 -163 -207 -114 -315 48 -104 178 -122 272 -37
51 46 77 97 85 166 19 157 -107 253 -243 186z m127 -74 c35 -42 17 -174 -30
-225 -28 -29 -70 -39 -96 -22 -50 33 -43 166 12 232 20 24 34 30 64 30 21 0
43 -7 50 -15z"/>
<path d="M5084 725 c-23 -14 -45 -32 -48 -41 -3 -8 -10 -12 -16 -9 -6 4 -8 11
-5 16 4 5 3 18 0 29 -5 16 -15 20 -46 20 -21 0 -39 -5 -39 -11 0 -16 -39 -339
-45 -371 -4 -27 -3 -28 45 -28 57 0 56 -2 66 115 11 133 69 230 133 223 22 -2
27 -9 30 -38 3 -34 -16 -248 -25 -282 -5 -15 2 -18 45 -18 58 0 53 -13 75 182
15 141 12 169 -24 208 -36 39 -88 40 -146 5z"/>
<path d="M5725 730 c-58 -30 -79 -64 -83 -135 -3 -50 0 -65 18 -87 28 -37 85
-53 134 -40 32 9 37 9 32 -4 -3 -9 -6 -24 -6 -34 0 -15 -11 -18 -72 -22 -116
-6 -178 -49 -178 -123 0 -40 47 -81 109 -94 116 -25 228 25 251 110 9 32 7 47
-16 102 l-26 64 28 63 c15 35 28 78 28 97 0 27 5 35 23 39 22 6 43 31 43 52 0
6 -33 13 -72 16 -40 3 -95 8 -123 11 -39 5 -59 1 -90 -15z m116 -66 c17 -21
15 -79 -5 -109 -22 -33 -61 -42 -86 -20 -29 26 -27 97 2 125 26 24 70 26 89 4z
m3 -324 c16 -16 -18 -64 -57 -79 -57 -21 -111 -6 -115 33 -4 34 6 46 50 56 36
9 108 3 122 -10z"/>
<path d="M7462 729 c-173 -86 -175 -375 -3 -404 86 -14 178 41 222 133 31 63
32 163 3 212 -45 78 -135 102 -222 59z m138 -106 c12 -35 12 -53 3 -98 -20
-93 -65 -137 -126 -121 -64 16 -63 169 2 239 21 23 33 27 66 25 37 -3 41 -6
55 -45z"/>
<path d="M8255 735 c-16 -8 -39 -28 -50 -44 -10 -16 -23 -27 -27 -25 -5 3 -6
10 -2 15 3 6 3 21 0 35 -5 20 -12 24 -46 24 -31 0 -40 -4 -40 -17 -1 -10 -11
-101 -23 -203 l-23 -185 44 -3 c24 -2 46 -1 49 1 2 3 10 52 18 110 20 153 52
207 124 207 27 0 31 4 39 43 11 58 -6 70 -63 42z"/>
<path d="M10210 734 c-81 -35 -130 -112 -138 -216 -6 -80 7 -116 54 -157 61
-54 167 -48 248 14 35 26 36 29 20 46 -22 24 -35 24 -81 -1 -70 -37 -126 -23
-142 37 -12 42 -4 53 40 53 42 0 132 30 166 56 61 46 51 134 -21 168 -42 20
-100 20 -146 0z"/>
<path d="M10962 733 c-18 -9 -41 -26 -51 -39 -25 -32 -31 -30 -31 11 0 34 -1
35 -40 35 -22 0 -40 -3 -40 -6 0 -12 -40 -341 -45 -371 l-6 -33 51 0 c27 0 50
1 50 3 1 1 7 53 14 115 11 90 19 120 40 152 34 51 69 74 101 66 22 -6 25 -11
25 -55 0 -44 -7 -109 -25 -243 l-5 -38 49 0 c56 0 52 -11 72 169 16 140 9 198
-25 228 -32 28 -86 30 -134 6z"/>
<path d="M4446 718 c-7 -30 -46 -350 -46 -371 0 -14 10 -17 50 -17 41 0 50 3
50 18 0 9 9 91 20 182 27 226 29 210 -25 210 -38 0 -45 -3 -49 -22z"/>
</g>
</svg>
